<svg width="839" height="201" viewBox="0 0 839 201" fill="none" xmlns="http://www.w3.org/2000/svg">
<path fill-rule="evenodd" clip-rule="evenodd" d="M339.049 66.5337C365.917 63.3343 390.267 82.5831 393.36 109.465C396.452 136.348 377.109 160.625 350.216 163.612C323.475 166.581 299.366 147.367 296.291 120.635C293.215 93.9029 312.332 69.7155 339.049 66.5337ZM373.114 110.885C370.693 95.1646 355.952 84.4097 340.245 86.9048C324.642 89.3836 313.977 104.006 316.38 119.622C318.785 135.237 333.355 145.974 348.98 143.644C364.711 141.298 375.534 126.606 373.114 110.885Z" fill="#252E35"/>
<path d="M455.726 67.1528C471.946 67.1161 482.638 72.2698 493.881 83.4429C489.609 87.874 484.108 92.9302 479.615 97.2632C472.823 90.8509 466.718 86.241 456.855 86.0562C449.968 85.9176 443.312 88.5438 438.373 93.3472C426.977 104.342 426.222 124.731 437.292 136.115C446.866 145.962 462.225 146.818 473.206 138.936C475.872 137.023 477.699 135.285 480.019 132.992C481.479 133.481 492.7 144.038 494.543 145.727C485.257 155.004 477.709 160.322 464.288 162.185C450.866 164.048 437.034 161.396 426.122 153.069C416.311 145.463 409.912 134.27 408.348 121.952C406.6 108.914 410.102 95.7154 418.081 85.2583C426.637 74.134 437.371 69.2142 450.976 67.4204C452.556 67.2582 454.141 67.1691 455.726 67.1528Z" fill="#252E35"/>
<path fill-rule="evenodd" clip-rule="evenodd" d="M548.057 67.4731C558.76 66.8454 573.305 70.0438 581.042 77.8188C593.125 89.9558 590.925 107.602 590.915 123.414L590.91 160.68L570.208 160.718L570.192 149.03C558.723 161.218 546.083 164.88 529.806 161.536C521.193 159.765 514.557 155.162 509.896 147.686C506.705 140.742 505.692 132.527 508.222 125.296C516.962 100.344 550.818 103.501 570.124 109.224C570.318 92.8413 563.967 86.3244 547.054 86.1187C537.297 85.9995 529.602 88.8716 520.72 92.6118L513.602 76.0571C525.192 70.3703 535.355 68.3099 548.057 67.4731ZM570.218 122.603C563.883 120.918 553.08 118.783 546.471 119.414C540.603 119.96 534.519 120.891 530.499 125.798C528.452 128.298 527.481 131.51 527.806 134.726C529.024 146.249 542.23 147.8 551.411 146.683C551.852 146.628 552.293 146.556 552.728 146.466C567.079 142.093 570.497 137.229 570.218 122.603Z" fill="#252E35"/>
<path d="M226.363 140.81L287.626 140.749L287.647 160.631C280.701 161.117 267.208 160.721 259.922 160.718L204.411 160.673L204.465 38.9263L226.33 38.8647L226.363 140.81Z" fill="#252E35"/>
<path d="M636.214 34.4976C636.613 46.2996 637.038 158.928 635.742 160.708L614.856 160.662L614.84 64.0532C614.84 56.0436 614.714 43.6339 615.024 35.231C615.286 34.9082 615.512 34.6325 615.701 34.4058L636.214 34.4976Z" fill="#252E35"/>
<path fill-rule="evenodd" clip-rule="evenodd" d="M765.922 35.9565C801.642 33.0996 832.454 54.6393 837.183 91.0561C839.456 107.967 834.795 125.078 824.26 138.501C828.354 142.48 834.312 147.468 838.701 151.342L824.665 165.794C819.883 161.106 814.597 156.383 809.658 151.823C807.532 153.285 804.965 154.67 802.703 155.959C795.233 159.557 787.166 161.742 778.904 162.406C718.949 167.564 685.923 101.85 723.348 57.6537C734.098 45.0532 749.414 37.2463 765.922 35.9565ZM772.672 56.1899C771.481 56.1899 770.027 56.1931 768.873 56.3774C728.875 62.2443 717.642 110.176 748.002 135.009C759.939 144.775 780.604 145.068 794.037 137.47L785.097 129.288C781.355 125.962 777.256 122.464 773.613 119.073C778.557 114.213 782.32 109.764 786.96 104.896C794.02 111.377 801.306 117.918 808.266 124.476C810.67 119.722 812.056 116.635 813.411 111.532C820.628 84.3499 801.783 56.1878 772.672 56.1899Z" fill="#7534EF"/>
<path d="M687.235 160.71L665.708 160.699L665.766 38.9203L687.235 38.8656V160.71Z" fill="#7534EF"/>
<path d="M86.6022 84.0667C94.5755 76.4573 103.301 68.3821 110.949 60.5249C114.908 64.208 118.768 67.995 122.528 71.8811C110.65 83.5987 98.6907 95.233 86.6503 106.783C79.5041 99.9373 72.2859 93.1682 64.9961 86.4761C56.2804 94.7809 36.4644 113.65 28.3728 122.345C27.3554 121.356 26.3689 120.335 25.4156 119.284C23.927 117.625 22.4809 116.134 22.5959 113.909C22.6488 111.242 21.5716 109.775 20.09 107.558C31.4557 95.8195 53.3111 75.5721 64.9105 63.8835C71.8197 70.49 79.4274 77.7118 86.6022 84.0667Z" fill="#252E35"/>
<path d="M77.4268 200.32C71.2338 193.866 59.5871 179.216 53.7299 171.933C38.1942 152.167 20.0619 133.414 8.42173 110.965C-6.70062 81.8004 -0.884045 47.9017 21.2723 24.1429C34.893 9.41049 53.8379 0.736242 73.889 0.0515622C94.3547 -0.638728 112.873 5.58675 127.879 19.6444C121.289 23.3022 114.056 26.573 107.263 30.2154C100.777 25.8529 93.0456 23.1741 85.3412 22.0725C70.5971 19.9101 55.6019 23.7628 43.7261 32.7656C5.36099 61.6367 23.0728 124.91 70.1071 129.462C102.964 132.642 128.541 112.523 132.061 79.744L143.226 89.5164C146.292 85.4508 150.972 80.4098 154.411 76.4934C152.624 109.735 134.855 129.638 115.018 154.459C102.639 169.87 90.1081 185.157 77.4268 200.32Z" fill="#7534EF"/>
<path d="M150.009 27.8149L150.812 27.865C151.729 29.4865 147.503 63.3221 146.867 67.7067C145.817 68.8087 144.245 70.2082 143.105 71.2874L133.083 61.6646L126.372 68.3066L121.548 63.4372L114.657 57.0369L121.35 50.5221C117.944 47.4758 114.621 44.3355 111.387 41.1059C116.64 37.9708 142.162 30.3361 150.009 27.8149Z" fill="#7534EF"/>
</svg>
