<svg width="170" height="41" viewBox="0 0 170 41" fill="none" xmlns="http://www.w3.org/2000/svg">
<g clip-path="url(#clip0_6327_2460)">
<path d="M0 9.47568C0 4.2424 4.25282 0 9.49896 0H31.2636C36.5097 0 40.7625 4.2424 40.7625 9.47568V31.1869C40.7625 36.4202 36.5097 40.6626 31.2636 40.6626H9.49896C4.25282 40.6626 0 36.4202 0 31.1869V9.47568Z" fill="#2D6DE0"/>
<path fill-rule="evenodd" clip-rule="evenodd" d="M34.5731 30.6508C34.575 30.9008 34.5271 31.1487 34.4321 31.38C34.3371 31.6114 34.197 31.8217 34.0198 31.9985C33.6582 32.3597 33.1677 32.5628 32.656 32.5633H15.6201C15.1353 32.5431 14.6759 32.3414 14.3335 31.9985C13.9798 31.6386 13.7817 31.1547 13.7817 30.6508C13.7817 30.1468 13.9798 29.6629 14.3335 29.303C14.6759 28.9601 15.1353 28.7585 15.6201 28.7383H32.656C33.1677 28.7387 33.6582 28.9419 34.0198 29.303C34.197 29.48 34.3371 29.6901 34.4321 29.9215C34.5271 30.1529 34.575 30.4007 34.5731 30.6508Z" fill="white"/>
<path fill-rule="evenodd" clip-rule="evenodd" d="M30.8808 24.272C30.8862 24.5232 30.838 24.7726 30.7393 25.0037C30.6497 25.237 30.509 25.4475 30.3275 25.6198C30.1451 25.7981 29.9314 25.9417 29.6971 26.0433C29.4637 26.1358 29.2148 26.1837 28.9637 26.1846H19.3392C18.8317 26.1821 18.3459 25.9791 17.9882 25.6198C17.8081 25.4445 17.6652 25.2347 17.568 25.0033C17.4708 24.7717 17.4211 24.5231 17.4221 24.272C17.4254 23.7659 17.6285 23.2814 17.9873 22.9234C18.3461 22.5656 18.8318 22.363 19.3392 22.3596H25.6311L20.4844 13.3748L9.92056 31.6011C9.79375 31.8251 9.62825 32.025 9.4317 32.1915C9.22926 32.3534 8.99781 32.4753 8.74971 32.5509C8.49923 32.6017 8.24105 32.6017 7.99056 32.5509C7.73153 32.5223 7.48155 32.4393 7.25714 32.3071C7.03039 32.1835 6.83292 32.0128 6.67813 31.8065C6.37115 31.3892 6.24167 30.868 6.31786 30.356C6.37004 30.1159 6.47074 29.8887 6.6138 29.6886L18.5544 9.04927C18.7494 8.71734 19.0292 8.4428 19.3649 8.25347C19.6965 8.05923 20.0742 7.95729 20.4586 7.95826C20.8433 7.9616 21.2205 8.06376 21.5541 8.25486C21.8876 8.44595 22.1663 8.71955 22.3629 9.04927L30.6235 23.3223C30.7981 23.608 30.8874 23.9375 30.8808 24.272Z" fill="white"/>
<path d="M66.7925 20.6131H64.3864C64.148 20.6263 63.9121 20.5584 63.7174 20.4206C63.5499 20.277 63.4179 20.097 63.3313 19.8944L61.7358 15.6843H53.501L51.9055 19.8944C51.8243 20.0893 51.6961 20.2612 51.5323 20.3949C51.3415 20.5428 51.1049 20.62 50.8633 20.6131H48.4572L56.0486 1.52686H59.2011L66.7925 20.6131ZM60.8995 13.4509L58.3261 6.48135C58.0751 5.8087 57.8604 5.12312 57.6827 4.42765C57.5798 4.83841 57.4769 5.2235 57.3611 5.58283C57.2452 5.94226 57.1423 6.23742 57.0394 6.49418L54.466 13.4509H60.8995Z" fill="black"/>
<path d="M69.2365 20.6126V7.09692H70.9478C71.1163 7.08308 71.2841 7.12983 71.421 7.22874C71.5579 7.32765 71.6547 7.47212 71.6942 7.63602L71.8743 8.81687C72.1316 8.53453 72.389 8.27777 72.6463 8.04677C72.9059 7.81467 73.1907 7.61237 73.4955 7.44352C73.8076 7.26339 74.1402 7.12112 74.4863 7.01992C74.8605 6.92496 75.2452 6.87747 75.6315 6.87876C76.0383 6.87582 76.4428 6.94091 76.8281 7.07126C77.1774 7.18172 77.5011 7.36065 77.7802 7.59752C78.0672 7.8353 78.3148 8.1169 78.5136 8.43187C78.7291 8.77598 78.8979 9.14723 79.0155 9.53572C79.2021 9.0926 79.4632 8.68459 79.7874 8.32911C80.0844 8.00232 80.4319 7.72493 80.8168 7.50768C81.1936 7.29208 81.6016 7.13625 82.0263 7.04559C83.1087 6.77288 84.2487 6.83558 85.2945 7.22535C85.8456 7.44416 86.3387 7.78672 86.7356 8.22644C87.147 8.69119 87.4541 9.23817 87.6363 9.83088C87.8514 10.538 87.9556 11.2741 87.9451 12.0129V20.6126H85.1015V12.0129C85.1639 11.2453 84.9393 10.4817 84.471 9.86938C84.2457 9.61611 83.9647 9.4182 83.6499 9.29133C83.3352 9.16437 82.9953 9.11185 82.6568 9.13779C82.3058 9.13788 81.9576 9.19866 81.6274 9.31746C81.3151 9.44497 81.0308 9.63252 80.7911 9.86938C80.5417 10.1263 80.3488 10.4323 80.2249 10.7679C80.0789 11.1798 80.0092 11.6146 80.019 12.0514V20.6511H77.1626V12.0514C77.228 11.2774 77.0185 10.505 76.5707 9.86938C76.3509 9.62317 76.0782 9.42957 75.773 9.30288C75.4678 9.17629 75.138 9.11982 74.8079 9.13779C74.2852 9.12899 73.7713 9.27172 73.3283 9.54855C72.834 9.82777 72.3974 10.1979 72.0415 10.6396V20.6126H69.2365Z" fill="black"/>
<path d="M94.804 9.06063C95.3287 8.41768 95.9655 7.87419 96.6832 7.45619C97.4697 7.02481 98.3583 6.81205 99.2561 6.8401C99.9738 6.8302 100.683 6.98842 101.327 7.30219C101.954 7.59837 102.501 8.03819 102.924 8.58571C103.401 9.24159 103.751 9.98207 103.953 10.7677C104.213 11.7299 104.339 12.7234 104.326 13.7199C104.331 14.6681 104.193 15.6116 103.914 16.518C103.667 17.3304 103.275 18.0915 102.756 18.7642C102.259 19.3852 101.631 19.8892 100.916 20.2403C100.16 20.6105 99.326 20.7954 98.4842 20.7794C97.7868 20.7984 97.093 20.667 96.4507 20.3943C95.9021 20.15 95.3976 19.816 94.9583 19.406V25.1434H92.0895V7.17377H93.8262C93.9944 7.16002 94.1626 7.20668 94.2995 7.30558C94.4364 7.40449 94.5329 7.54896 94.5724 7.71286L94.804 9.06063ZM94.9583 17.2239C95.2892 17.6863 95.7321 18.0573 96.2448 18.3021C96.7456 18.5123 97.285 18.6172 97.8281 18.6102C98.3234 18.6302 98.8169 18.5296 99.2653 18.3172C99.7138 18.1047 100.103 17.7868 100.401 17.3908C101.105 16.3156 101.436 15.0392 101.34 13.7584C101.363 13.0697 101.307 12.3807 101.173 11.7047C101.068 11.1625 100.853 10.6472 100.543 10.1902C100.305 9.83448 99.9701 9.55389 99.5777 9.38147C99.1707 9.21234 98.7323 9.12929 98.2913 9.13763C97.6287 9.11738 96.9735 9.28192 96.3992 9.61256C95.8414 9.94934 95.3489 10.3842 94.9455 10.8961L94.9583 17.2239Z" fill="black"/>
<path d="M126.766 7.09719L122.417 20.6129H120.139C119.868 20.6129 119.688 20.446 119.585 20.0995L116.884 11.7051C116.884 11.4612 116.742 11.2302 116.691 10.9862C116.639 10.7424 116.588 10.5114 116.536 10.2931C116.44 10.7695 116.319 11.2408 116.176 11.7051L113.409 20.0995C113.384 20.2467 113.307 20.38 113.191 20.4744C113.075 20.5688 112.929 20.618 112.779 20.6129H110.656L106.307 7.09719H108.558C108.757 7.08536 108.953 7.14458 109.111 7.26402C109.252 7.35422 109.357 7.49034 109.407 7.64911L111.66 15.5557C111.75 15.9151 111.827 16.2617 111.891 16.6082C111.956 16.9547 112.02 17.2885 112.071 17.6222C112.161 17.2885 112.251 16.9419 112.354 16.6082C112.457 16.2745 112.547 15.9151 112.663 15.5557L115.237 7.63628C115.277 7.47944 115.373 7.34258 115.507 7.25119C115.653 7.14742 115.829 7.09343 116.009 7.09719H117.295C117.479 7.09059 117.66 7.14476 117.81 7.25119C117.943 7.3457 118.042 7.48081 118.093 7.63628L120.486 15.5557C120.589 15.9151 120.692 16.2617 120.783 16.6082C120.873 16.9547 120.963 17.3013 121.04 17.6478C121.04 17.3142 121.169 16.9676 121.246 16.621C121.323 16.2745 121.4 15.9151 121.49 15.5557L123.793 7.67478C123.848 7.51491 123.952 7.37594 124.089 7.27685C124.239 7.17043 124.42 7.11625 124.604 7.12285L126.766 7.09719Z" fill="black"/>
<path d="M129.133 8.97077C130.603 7.56992 132.568 6.80423 134.601 6.84007C135.311 6.82678 136.016 6.95777 136.673 7.22516C137.261 7.4536 137.785 7.8188 138.204 8.29051C138.633 8.76379 138.953 9.32442 139.144 9.93345C139.378 10.6056 139.491 11.314 139.478 12.0257V20.6125H138.191C137.975 20.624 137.759 20.5845 137.56 20.497C137.39 20.3694 137.268 20.1887 137.213 19.9836L136.93 18.8798C136.603 19.1769 136.259 19.4555 135.901 19.714C135.575 19.949 135.225 20.1511 134.859 20.3173C134.492 20.4947 134.102 20.62 133.701 20.6895C133.277 20.7805 132.846 20.8279 132.413 20.8307C131.891 20.8352 131.37 20.7572 130.87 20.5997C130.396 20.4699 129.957 20.2376 129.583 19.9194C129.228 19.6086 128.946 19.2228 128.76 18.7899C128.549 18.2863 128.448 17.7437 128.464 17.1983C128.468 16.6624 128.609 16.1364 128.876 15.6709C129.221 15.1362 129.694 14.6952 130.252 14.3874C131.054 13.9281 131.922 13.5947 132.825 13.399C134.093 13.1199 135.387 12.9736 136.686 12.9626V12.0642C136.744 11.2868 136.526 10.5138 136.068 9.88212C135.833 9.63664 135.545 9.44616 135.227 9.32406C134.909 9.20205 134.568 9.15154 134.228 9.1762C133.761 9.16226 133.295 9.23175 132.851 9.38153C132.515 9.50464 132.189 9.65048 131.873 9.81795C131.603 9.98479 131.359 10.126 131.153 10.2671C130.95 10.3983 130.713 10.4694 130.471 10.4725C130.294 10.4751 130.119 10.4261 129.969 10.3314C129.838 10.2221 129.725 10.092 129.635 9.94629L129.133 8.97077ZM136.698 14.7082C135.836 14.7229 134.975 14.8044 134.125 14.9521C133.542 15.0479 132.972 15.2116 132.426 15.4399C132.057 15.595 131.73 15.8372 131.474 16.1458C131.297 16.4117 131.202 16.7246 131.204 17.0442C131.193 17.325 131.242 17.6049 131.346 17.8657C131.442 18.0838 131.587 18.277 131.77 18.4305C131.965 18.5728 132.183 18.6812 132.413 18.7514C132.68 18.8098 132.952 18.8399 133.225 18.8413C133.883 18.8582 134.536 18.7174 135.129 18.4305C135.715 18.1121 136.245 17.7002 136.698 17.2111V14.7082Z" fill="black"/>
<path d="M146.477 1V12.3722H147.095C147.257 12.3767 147.418 12.3505 147.571 12.2952C147.724 12.215 147.856 12.1008 147.957 11.9614L151.816 7.6231C151.936 7.46378 152.084 7.32867 152.254 7.22518C152.446 7.13195 152.658 7.08786 152.872 7.09684H155.445L150.877 12.231C150.639 12.5562 150.342 12.8347 150.002 13.0524C150.178 13.1742 150.334 13.3212 150.466 13.4888C150.606 13.6505 150.736 13.8221 150.852 14.0023L155.728 20.6125H153.155C152.949 20.6152 152.744 20.5804 152.551 20.5099C152.372 20.4104 152.225 20.2637 152.125 20.0863L148.266 14.7852C148.171 14.622 148.033 14.4886 147.867 14.4002C147.673 14.3289 147.467 14.2984 147.262 14.3104H146.554V20.6125H143.698V1H146.477Z" fill="black"/>
<path d="M159.653 14.0794C159.673 14.761 159.794 15.4358 160.013 16.0818C160.194 16.5906 160.469 17.061 160.824 17.468C161.181 17.8433 161.622 18.1292 162.111 18.3023C162.622 18.4872 163.162 18.5786 163.706 18.5718C164.197 18.5781 164.686 18.5177 165.16 18.3922C165.519 18.269 165.871 18.1275 166.215 17.9686L166.988 17.5451C167.161 17.4205 167.366 17.3491 167.58 17.3397C167.683 17.3356 167.786 17.3584 167.878 17.4056C167.971 17.4528 168.049 17.5229 168.107 17.6092L168.918 18.6489C168.586 19.0398 168.201 19.3813 167.773 19.6629C167.367 19.9313 166.935 20.1592 166.485 20.3432C165.964 20.5189 165.425 20.6352 164.877 20.6897C164.389 20.7764 163.894 20.8194 163.398 20.818C162.519 20.8211 161.647 20.6645 160.824 20.356C160.037 20.0442 159.326 19.5671 158.74 18.9569C158.122 18.3048 157.649 17.5309 157.35 16.6851C157.01 15.6852 156.845 14.6346 156.861 13.5789C156.859 12.6836 157.006 11.7942 157.299 10.9476C157.593 10.1686 158.029 9.45054 158.585 8.82978C159.154 8.22276 159.842 7.73794 160.605 7.40509C161.46 7.04503 162.38 6.86582 163.308 6.87884C164.098 6.8726 164.883 7.01184 165.623 7.2895C166.312 7.54388 166.936 7.94712 167.451 8.47044C167.981 9.02108 168.388 9.67714 168.647 10.3957C168.954 11.2162 169.102 12.0872 169.085 12.9628C169.117 13.2653 169.068 13.5709 168.943 13.8484C168.884 13.9296 168.803 13.9935 168.71 14.0341C168.618 14.0746 168.516 14.0903 168.416 14.0794H159.653ZM166.472 12.3338C166.474 11.8978 166.404 11.4643 166.266 11.0503C166.141 10.6574 165.935 10.2947 165.662 9.98496C165.393 9.67183 165.053 9.4257 164.671 9.2662C164.241 9.07984 163.776 8.9879 163.308 8.99661C162.861 8.9725 162.414 9.0385 161.994 9.19067C161.574 9.34283 161.189 9.57814 160.862 9.88229C160.228 10.5753 159.831 11.4521 159.73 12.3852L166.472 12.3338Z" fill="black"/>
<path d="M167.549 36.2741C168.153 36.7064 168.81 37.05 169.519 37.305L168.613 39.0426C168.242 38.9318 167.879 38.7793 167.524 38.5853C167.446 38.5465 166.901 38.1863 165.886 37.5045C165.088 37.8537 164.204 38.0283 163.234 38.0283C161.361 38.0283 159.892 37.4768 158.828 36.3738C157.769 35.2708 157.24 33.7217 157.24 31.7263C157.24 29.7365 157.772 28.1901 158.836 27.0871C159.9 25.9786 161.344 25.4243 163.168 25.4243C164.974 25.4243 166.407 25.9786 167.466 27.0871C168.525 28.1901 169.054 29.7365 169.054 31.7263C169.054 32.7794 168.907 33.705 168.613 34.5032C168.391 35.1129 168.037 35.7032 167.549 36.2741ZM165.57 34.8856C165.886 34.5143 166.122 34.0653 166.277 33.5388C166.438 33.0122 166.518 32.4081 166.518 31.7263C166.518 30.3185 166.208 29.2681 165.587 28.5753C164.966 27.8769 164.154 27.5278 163.151 27.5278C162.148 27.5278 161.333 27.8769 160.707 28.5753C160.086 29.2737 159.775 30.324 159.775 31.7263C159.775 33.1508 160.086 34.2177 160.707 34.9272C161.333 35.6311 162.123 35.9831 163.076 35.9831C163.431 35.9831 163.766 35.9249 164.082 35.8085C163.583 35.4815 163.076 35.2265 162.561 35.0436L163.251 33.6385C164.06 33.9157 164.833 34.3314 165.57 34.8856Z" fill="#737373"/>
<path d="M152.925 37.8206V25.6323H155.386V37.8206H152.925Z" fill="#737373"/>
<path d="M148.244 37.8206V25.6323H150.58V37.8206H148.244Z" fill="#737373"/>
<path d="M140.512 31.6848L138.392 31.3023C138.63 30.4488 139.04 29.8169 139.622 29.4067C140.204 28.9966 141.069 28.7915 142.216 28.7915C143.258 28.7915 144.034 28.9162 144.544 29.1656C145.054 29.4095 145.412 29.7227 145.617 30.1051C145.827 30.482 145.933 31.1776 145.933 32.1919L145.908 34.9189C145.908 35.6949 145.944 36.2685 146.016 36.6399C146.093 37.0057 146.235 37.3992 146.44 37.8205H144.129C144.068 37.6653 143.993 37.4353 143.904 37.1304C143.865 36.9919 143.838 36.9004 143.821 36.8561C143.422 37.244 142.995 37.535 142.541 37.729C142.086 37.923 141.601 38.02 141.086 38.02C140.177 38.02 139.459 37.7734 138.932 37.2801C138.411 36.7868 138.151 36.1632 138.151 35.4094C138.151 34.9106 138.27 34.4672 138.508 34.0792C138.747 33.6857 139.079 33.3864 139.506 33.1813C139.938 32.9707 140.559 32.7878 141.368 32.6326C142.46 32.4275 143.217 32.2363 143.638 32.0589V31.8261C143.638 31.3772 143.527 31.0584 143.305 30.87C143.084 30.676 142.665 30.579 142.05 30.579C141.634 30.579 141.31 30.6621 141.077 30.8284C140.845 30.9892 140.656 31.2746 140.512 31.6848ZM143.638 33.5804C143.339 33.6801 142.865 33.7993 142.216 33.9379C141.568 34.0764 141.144 34.2122 140.944 34.3452C140.639 34.5614 140.487 34.8358 140.487 35.1683C140.487 35.4953 140.609 35.778 140.853 36.0164C141.097 36.2547 141.407 36.3739 141.784 36.3739C142.205 36.3739 142.607 36.2353 142.99 35.9582C143.272 35.7475 143.458 35.4898 143.547 35.185C143.608 34.9854 143.638 34.6057 143.638 34.0459V33.5804Z" fill="#737373"/>
<path d="M136.987 31.6016L134.684 32.0173C134.606 31.5573 134.429 31.2109 134.152 30.9781C133.88 30.7453 133.525 30.6289 133.088 30.6289C132.506 30.6289 132.04 30.8312 131.691 31.2358C131.347 31.6349 131.175 32.3055 131.175 33.2478C131.175 34.2954 131.35 35.0353 131.699 35.4676C132.054 35.9 132.528 36.1161 133.121 36.1161C133.564 36.1161 133.927 35.9914 134.21 35.742C134.493 35.487 134.692 35.0519 134.809 34.4367L137.103 34.8275C136.865 35.8806 136.408 36.6759 135.731 37.2136C135.055 37.7512 134.149 38.02 133.013 38.02C131.721 38.02 130.69 37.6126 129.92 36.7979C129.155 35.9831 128.773 34.8552 128.773 33.4141C128.773 31.9564 129.158 30.8229 129.928 30.0137C130.699 29.1989 131.741 28.7915 133.054 28.7915C134.13 28.7915 134.983 29.0243 135.615 29.4899C136.252 29.9499 136.71 30.6538 136.987 31.6016Z" fill="#737373"/>
<path d="M118.339 33.2811C118.339 32.5051 118.53 31.7541 118.912 31.028C119.295 30.3019 119.835 29.7476 120.534 29.3652C121.237 28.9827 122.022 28.7915 122.886 28.7915C124.222 28.7915 125.317 29.2266 126.17 30.0968C127.024 30.9615 127.451 32.0561 127.451 33.3808C127.451 34.7166 127.018 35.8251 126.154 36.7064C125.295 37.5822 124.211 38.02 122.903 38.02C122.094 38.02 121.321 37.8371 120.583 37.4713C119.852 37.1055 119.295 36.5706 118.912 35.8667C118.53 35.1572 118.339 34.2954 118.339 33.2811ZM120.733 33.4058C120.733 34.2815 120.941 34.9522 121.357 35.4177C121.772 35.8833 122.285 36.1161 122.895 36.1161C123.504 36.1161 124.014 35.8833 124.424 35.4177C124.84 34.9522 125.048 34.276 125.048 33.3891C125.048 32.5245 124.84 31.8594 124.424 31.3938C124.014 30.9282 123.504 30.6954 122.895 30.6954C122.285 30.6954 121.772 30.9282 121.357 31.3938C120.941 31.8594 120.733 32.53 120.733 33.4058Z" fill="#737373"/>
<path d="M108.553 37.8205V25.7319H111.014V35.7669H117.133V37.8205H108.553Z" fill="#737373"/>
</g>
<defs>
<clipPath id="clip0_6327_2460">
<rect width="170" height="41" fill="white"/>
</clipPath>
</defs>
</svg>
