<svg width="500" height="500" viewBox="0 0 500 500" fill="none" xmlns="http://www.w3.org/2000/svg">
<path d="M273.16 209.832C293.061 190.839 314.839 170.683 333.93 151.071C343.81 160.264 353.447 169.717 362.831 179.416C333.184 208.664 303.333 237.703 273.28 266.532C255.443 249.445 237.426 232.549 219.231 215.846C197.476 236.574 148.015 283.671 127.819 305.376C125.279 302.906 122.817 300.357 120.437 297.734C116.722 293.594 113.112 289.871 113.399 284.318C113.531 277.662 110.843 274 107.145 268.465C135.513 239.167 190.065 188.629 219.017 159.454C236.263 175.944 255.251 193.97 273.16 209.832Z" fill="#252E35"/>
<path d="M250.258 500C234.8 483.891 205.73 447.326 191.11 429.147C152.333 379.81 107.075 333.003 78.0207 276.971C40.2752 204.175 54.7934 119.563 110.096 60.261C144.093 23.4887 191.38 1.83767 241.428 0.1287C292.51 -1.59427 338.732 13.9446 376.187 49.0325C359.738 58.1626 341.685 66.3264 324.729 75.418C308.541 64.5291 289.243 57.8428 270.012 55.0932C233.211 49.6957 195.783 59.3122 166.141 81.7833C70.3811 153.846 114.59 311.777 231.988 323.138C314 331.077 377.84 280.858 386.626 199.042L414.493 223.434C422.148 213.286 433.829 200.704 442.411 190.928C437.951 273.9 393.6 323.578 344.086 385.532C313.189 423.997 281.911 462.155 250.258 500Z" fill="#7534EF"/>
<path d="M431.425 69.4277L433.429 69.5526C435.717 73.6001 425.169 158.054 423.582 168.998C420.962 171.749 417.037 175.242 414.192 177.935L389.177 153.917L372.425 170.495L360.385 158.341L343.185 142.366L359.892 126.105C351.389 118.501 343.096 110.663 335.024 102.602C348.135 94.7769 411.837 75.7207 431.425 69.4277Z" fill="#7534EF"/>
</svg>
