<svg width="41" height="41" viewBox="0 0 41 41" fill="none" xmlns="http://www.w3.org/2000/svg">
<path d="M0 9.47568C0 4.2424 4.25282 0 9.49896 0H31.2636C36.5097 0 40.7625 4.2424 40.7625 9.47568V31.1869C40.7625 36.4202 36.5097 40.6626 31.2636 40.6626H9.49896C4.25282 40.6626 0 36.4202 0 31.1869V9.47568Z" fill="#2D6DE0"/>
<path fill-rule="evenodd" clip-rule="evenodd" d="M34.5731 30.6508C34.575 30.9008 34.5271 31.1487 34.4321 31.38C34.3371 31.6114 34.197 31.8217 34.0198 31.9985C33.6582 32.3597 33.1677 32.5628 32.656 32.5633H15.6201C15.1353 32.5431 14.6759 32.3414 14.3335 31.9985C13.9798 31.6386 13.7817 31.1547 13.7817 30.6508C13.7817 30.1468 13.9798 29.6629 14.3335 29.303C14.6759 28.9601 15.1353 28.7585 15.6201 28.7383H32.656C33.1677 28.7387 33.6582 28.9419 34.0198 29.303C34.197 29.48 34.3371 29.6901 34.4321 29.9215C34.5271 30.1529 34.575 30.4007 34.5731 30.6508Z" fill="white"/>
<path fill-rule="evenodd" clip-rule="evenodd" d="M30.8808 24.272C30.8862 24.5232 30.838 24.7726 30.7393 25.0037C30.6497 25.237 30.509 25.4475 30.3275 25.6198C30.1451 25.7981 29.9314 25.9417 29.6971 26.0433C29.4637 26.1358 29.2148 26.1837 28.9637 26.1846H19.3392C18.8317 26.1821 18.3459 25.9791 17.9882 25.6198C17.8081 25.4445 17.6652 25.2347 17.568 25.0033C17.4708 24.7717 17.4211 24.5231 17.4221 24.272C17.4254 23.7659 17.6285 23.2814 17.9873 22.9234C18.3461 22.5656 18.8318 22.363 19.3392 22.3596H25.6311L20.4844 13.3748L9.92056 31.6011C9.79375 31.8251 9.62825 32.025 9.4317 32.1915C9.22926 32.3534 8.99781 32.4753 8.74971 32.5509C8.49923 32.6017 8.24105 32.6017 7.99056 32.5509C7.73153 32.5223 7.48155 32.4393 7.25714 32.3071C7.03039 32.1835 6.83292 32.0128 6.67813 31.8065C6.37115 31.3892 6.24167 30.868 6.31786 30.356C6.37004 30.1159 6.47074 29.8887 6.6138 29.6886L18.5544 9.04927C18.7494 8.71734 19.0292 8.4428 19.3649 8.25347C19.6965 8.05923 20.0742 7.95729 20.4586 7.95826C20.8433 7.9616 21.2205 8.06376 21.5541 8.25486C21.8876 8.44595 22.1663 8.71955 22.3629 9.04927L30.6235 23.3223C30.7981 23.608 30.8874 23.9375 30.8808 24.272Z" fill="white"/>
</svg>
